<svg xmlns="http://www.w3.org/2000/svg" xmlns:xlink="http://www.w3.org/1999/xlink" width="170" height="187" viewBox="0 0 170 187">
  <defs>
    <linearGradient id="linear-gradient" x1="0.5" x2="0.5" y2="1" gradientUnits="objectBoundingBox">
      <stop offset="0" stop-color="#ede52a"/>
      <stop offset="0.448" stop-color="#f6b71c"/>
      <stop offset="0.753" stop-color="#ef821b"/>
      <stop offset="1" stop-color="#efba14"/>
    </linearGradient>
  </defs>
  <g id="LOGO" transform="translate(-819.942 -388.028)">
    <text id="CИБ" transform="translate(819.942 460.028)" fill="#464646" font-size="74" font-family="Montserrat-Bold, Montserrat" font-weight="700"><tspan x="0" y="0">CИБ</tspan></text>
    <text id="ТЕХНИКА" transform="translate(822.942 567.028)" fill="#464646" font-size="31" font-family="Montserrat-Bold, Montserrat" font-weight="700" letter-spacing="0.03em"><tspan x="0" y="0">ТЕХНИКА</tspan></text>
    <text id="ЭК" transform="translate(821.942 529.028)" fill="#464646" font-size="74" font-family="Montserrat-Bold, Montserrat" font-weight="700"><tspan x="0" y="0">ЭК</tspan></text>
    <path id="Subtraction_1" data-name="Subtraction 1" d="M29.024,103.411a29.524,29.524,0,0,1-11.3-2.222A29.054,29.054,0,0,1,8.5,95.141a28.117,28.117,0,0,1-6.22-8.95A27.15,27.15,0,0,1,0,75.264c0-3.316,1.165-5.893,2.291-8.385a27.772,27.772,0,0,0,1.6-4.091c.213.778.41,1.51.6,2.219C5.82,69.947,6.622,72.93,7.782,72.93a.864.864,0,0,0,.424-.124c.609-.344.555-1.664.482-3.491a31.873,31.873,0,0,1,.107-5.26,15.422,15.422,0,0,1,1.983-6.083c.914-1.552,1.708-5.574.613-9.66A15.02,15.02,0,0,0,4,39.06a10.993,10.993,0,0,1,5.32-1.241,16.455,16.455,0,0,1,9.738,3.332,13.393,13.393,0,0,1,3.9,5.341c.468.992.807,1.708,1.207,1.708.215,0,.441-.2.713-.622.824-1.4-1.031-4.944-3.178-9.048-1.242-2.374-2.65-5.064-3.683-7.632a17.189,17.189,0,0,1-1.584-7.189c.431-6.975,4.424-13,7.7-16.832C27.7,2.7,31.4,0,31.885,0a.034.034,0,0,1,.024.02c.031.07-.091.3-.311.721-1.088,2.072-4.4,8.377-2.433,20.012,1.2,7.095,6.32,13.394,11.744,20.063,1,1.228,2.031,2.5,3.032,3.766,4.483,6.524,8.1,11.9,10.518,16.772a30.2,30.2,0,0,1,3.592,13.91A27.244,27.244,0,0,1,55.768,86.22a28.023,28.023,0,0,1-6.22,8.947,28.994,28.994,0,0,1-9.226,6.032A29.621,29.621,0,0,1,29.024,103.411ZM29.2,59a16.892,16.892,0,0,0,0,33.778A16.892,16.892,0,0,0,29.2,59Z" transform="translate(931.199 427.217)" fill="url(#linear-gradient)"/>
  </g>
</svg>
